<?xml version="1.0" encoding="utf-8" standalone="no"?>
<!DOCTYPE svg PUBLIC "-//W3C//DTD SVG 1.1//EN"
  "http://www.w3.org/Graphics/SVG/1.1/DTD/svg11.dtd">
<svg xmlns:xlink="http://www.w3.org/1999/xlink" width="720pt" height="432pt" viewBox="0 0 720 432" xmlns="http://www.w3.org/2000/svg" version="1.1">
 <metadata>
  <rdf:RDF xmlns:dc="http://purl.org/dc/elements/1.1/" xmlns:cc="http://creativecommons.org/ns#" xmlns:rdf="http://www.w3.org/1999/02/22-rdf-syntax-ns#">
   <cc:Work>
    <dc:type rdf:resource="http://purl.org/dc/dcmitype/StillImage"/>
    <dc:date>2025-09-13T10:07:13.312695</dc:date>
    <dc:format>image/svg+xml</dc:format>
    <dc:creator>
     <cc:Agent>
      <dc:title>Matplotlib v3.10.6, https://matplotlib.org/</dc:title>
     </cc:Agent>
    </dc:creator>
   </cc:Work>
  </rdf:RDF>
 </metadata>
 <defs>
  <style type="text/css">*{stroke-linejoin: round; stroke-linecap: butt}</style>
 </defs>
 <g id="figure_1">
  <g id="patch_1">
   <path d="M 0 432 
L 720 432 
L 720 0 
L 0 0 
z
" style="fill: #ffffff"/>
  </g>
  <g id="axes_1">
   <g id="patch_2">
    <path d="M 66.62 390.04 
L 709.2 390.04 
L 709.2 26.88 
L 66.62 26.88 
z
" style="fill: #ffffff"/>
   </g>
   <g id="PathCollection_1">
    <defs>
     <path id="m96f1395b5a" d="M 0 1.118034 
C 0.296506 1.118034 0.580908 1.000231 0.790569 0.790569 
C 1.000231 0.580908 1.118034 0.296506 1.118034 0 
C 1.118034 -0.296506 1.000231 -0.580908 0.790569 -0.790569 
C 0.580908 -1.000231 0.296506 -1.118034 0 -1.118034 
C -0.296506 -1.118034 -0.580908 -1.000231 -0.790569 -0.790569 
C -1.000231 -0.580908 -1.118034 -0.296506 -1.118034 0 
C -1.118034 0.296506 -1.000231 0.580908 -0.790569 0.790569 
C -0.580908 1.000231 -0.296506 1.118034 0 1.118034 
z
" style="stroke: #0000ff"/>
    </defs>
    <g clip-path="url(#pdaaf66052a)">
     <use xlink:href="#m96f1395b5a" x="106.78125" y="365.071917" style="fill: #0000ff; stroke: #0000ff"/>
     <use xlink:href="#m96f1395b5a" x="146.9425" y="346.006119" style="fill: #0000ff; stroke: #0000ff"/>
     <use xlink:href="#m96f1395b5a" x="187.10375" y="321.087294" style="fill: #0000ff; stroke: #0000ff"/>
     <use xlink:href="#m96f1395b5a" x="227.265" y="287.359955" style="fill: #0000ff; stroke: #0000ff"/>
     <use xlink:href="#m96f1395b5a" x="267.42625" y="240.651647" style="fill: #0000ff; stroke: #0000ff"/>
     <use xlink:href="#m96f1395b5a" x="307.5875" y="176.268358" style="fill: #0000ff; stroke: #0000ff"/>
     <use xlink:href="#m96f1395b5a" x="347.74875" y="97.803037" style="fill: #0000ff; stroke: #0000ff"/>
     <use xlink:href="#m96f1395b5a" x="371.8455" y="58.570376" style="fill: #0000ff; stroke: #0000ff"/>
     <use xlink:href="#m96f1395b5a" x="379.87775" y="50.225467" style="fill: #0000ff; stroke: #0000ff"/>
     <use xlink:href="#m96f1395b5a" x="387.91" y="45.299653" style="fill: #0000ff; stroke: #0000ff"/>
     <use xlink:href="#m96f1395b5a" x="393.934188" y="43.56113" style="fill: #0000ff; stroke: #0000ff"/>
     <use xlink:href="#m96f1395b5a" x="394.737413" y="43.50318" style="fill: #0000ff; stroke: #0000ff"/>
     <use xlink:href="#m96f1395b5a" x="395.139025" y="43.445229" style="fill: #0000ff; stroke: #0000ff"/>
     <use xlink:href="#m96f1395b5a" x="395.339831" y="43.387278" style="fill: #0000ff; stroke: #0000ff"/>
     <use xlink:href="#m96f1395b5a" x="395.540638" y="43.445229" style="fill: #0000ff; stroke: #0000ff"/>
     <use xlink:href="#m96f1395b5a" x="395.94225" y="43.56113" style="fill: #0000ff; stroke: #0000ff"/>
     <use xlink:href="#m96f1395b5a" x="403.9745" y="45.531456" style="fill: #0000ff; stroke: #0000ff"/>
     <use xlink:href="#m96f1395b5a" x="428.07125" y="69.870773" style="fill: #0000ff; stroke: #0000ff"/>
     <use xlink:href="#m96f1395b5a" x="468.2325" y="137.673156" style="fill: #0000ff; stroke: #0000ff"/>
     <use xlink:href="#m96f1395b5a" x="508.39375" y="200.20202" style="fill: #0000ff; stroke: #0000ff"/>
     <use xlink:href="#m96f1395b5a" x="548.555" y="247.02623" style="fill: #0000ff; stroke: #0000ff"/>
     <use xlink:href="#m96f1395b5a" x="588.71625" y="280.985372" style="fill: #0000ff; stroke: #0000ff"/>
     <use xlink:href="#m96f1395b5a" x="628.8775" y="306.19395" style="fill: #0000ff; stroke: #0000ff"/>
     <use xlink:href="#m96f1395b5a" x="669.03875" y="325.37565" style="fill: #0000ff; stroke: #0000ff"/>
    </g>
   </g>
   <g id="PathCollection_2">
    <defs>
     <path id="md8361e597d" d="M 0 1.118034 
C 0.296506 1.118034 0.580908 1.000231 0.790569 0.790569 
C 1.000231 0.580908 1.118034 0.296506 1.118034 0 
C 1.118034 -0.296506 1.000231 -0.580908 0.790569 -0.790569 
C 0.580908 -1.000231 0.296506 -1.118034 0 -1.118034 
C -0.296506 -1.118034 -0.580908 -1.000231 -0.790569 -0.790569 
C -1.000231 -0.580908 -1.118034 -0.296506 -1.118034 0 
C -1.118034 0.296506 -1.000231 0.580908 -0.790569 0.790569 
C -0.580908 1.000231 -0.296506 1.118034 0 1.118034 
z
" style="stroke: #ffa500"/>
    </defs>
    <g clip-path="url(#pdaaf66052a)">
     <use xlink:href="#md8361e597d" x="106.78125" y="373.532727" style="fill: #ffa500; stroke: #ffa500"/>
     <use xlink:href="#md8361e597d" x="146.9425" y="359.624546" style="fill: #ffa500; stroke: #ffa500"/>
     <use xlink:href="#md8361e597d" x="187.10375" y="343.491056" style="fill: #ffa500; stroke: #ffa500"/>
     <use xlink:href="#md8361e597d" x="227.265" y="325.155437" style="fill: #ffa500; stroke: #ffa500"/>
     <use xlink:href="#md8361e597d" x="267.42625" y="305.429" style="fill: #ffa500; stroke: #ffa500"/>
     <use xlink:href="#md8361e597d" x="307.5875" y="286.374792" style="fill: #ffa500; stroke: #ffa500"/>
     <use xlink:href="#md8361e597d" x="347.74875" y="271.58576" style="fill: #ffa500; stroke: #ffa500"/>
     <use xlink:href="#md8361e597d" x="387.91" y="264.956193" style="fill: #ffa500; stroke: #ffa500"/>
     <use xlink:href="#md8361e597d" x="395.94225" y="264.770751" style="fill: #ffa500; stroke: #ffa500"/>
     <use xlink:href="#md8361e597d" x="396.343863" y="264.72439" style="fill: #ffa500; stroke: #ffa500"/>
     <use xlink:href="#md8361e597d" x="396.745475" y="264.72439" style="fill: #ffa500; stroke: #ffa500"/>
     <use xlink:href="#md8361e597d" x="397.950312" y="264.747571" style="fill: #ffa500; stroke: #ffa500"/>
     <use xlink:href="#md8361e597d" x="399.958375" y="264.817112" style="fill: #ffa500; stroke: #ffa500"/>
     <use xlink:href="#md8361e597d" x="403.9745" y="264.979374" style="fill: #ffa500; stroke: #ffa500"/>
     <use xlink:href="#md8361e597d" x="428.07125" y="267.923272" style="fill: #ffa500; stroke: #ffa500"/>
     <use xlink:href="#md8361e597d" x="468.2325" y="278.447129" style="fill: #ffa500; stroke: #ffa500"/>
     <use xlink:href="#md8361e597d" x="508.39375" y="292.818916" style="fill: #ffa500; stroke: #ffa500"/>
     <use xlink:href="#md8361e597d" x="548.555" y="308.048375" style="fill: #ffa500; stroke: #ffa500"/>
     <use xlink:href="#md8361e597d" x="588.71625" y="322.373801" style="fill: #ffa500; stroke: #ffa500"/>
     <use xlink:href="#md8361e597d" x="628.8775" y="335.192508" style="fill: #ffa500; stroke: #ffa500"/>
     <use xlink:href="#md8361e597d" x="669.03875" y="346.388594" style="fill: #ffa500; stroke: #ffa500"/>
    </g>
   </g>
   <g id="matplotlib.axis_1">
    <g id="xtick_1">
     <g id="line2d_1">
      <defs>
       <path id="m0a5655d97b" d="M 0 0 
L 0 3.5 
" style="stroke: #000000; stroke-width: 0.8"/>
      </defs>
      <g>
       <use xlink:href="#m0a5655d97b" x="106.78125" y="390.04" style="stroke: #000000; stroke-width: 0.8"/>
      </g>
     </g>
     <g id="text_1">
      <!-- 1600 -->
      <g transform="translate(94.05625 404.638438) scale(0.1 -0.1)">
       <defs>
        <path id="DejaVuSans-31" d="M 794 531 
L 1825 531 
L 1825 4091 
L 703 3866 
L 703 4441 
L 1819 4666 
L 2450 4666 
L 2450 531 
L 3481 531 
L 3481 0 
L 794 0 
L 794 531 
z
" transform="scale(0.015625)"/>
        <path id="DejaVuSans-36" d="M 2113 2584 
Q 1688 2584 1439 2293 
Q 1191 2003 1191 1497 
Q 1191 994 1439 701 
Q 1688 409 2113 409 
Q 2538 409 2786 701 
Q 3034 994 3034 1497 
Q 3034 2003 2786 2293 
Q 2538 2584 2113 2584 
z
M 3366 4563 
L 3366 3988 
Q 3128 4100 2886 4159 
Q 2644 4219 2406 4219 
Q 1781 4219 1451 3797 
Q 1122 3375 1075 2522 
Q 1259 2794 1537 2939 
Q 1816 3084 2150 3084 
Q 2853 3084 3261 2657 
Q 3669 2231 3669 1497 
Q 3669 778 3244 343 
Q 2819 -91 2113 -91 
Q 1303 -91 875 529 
Q 447 1150 447 2328 
Q 447 3434 972 4092 
Q 1497 4750 2381 4750 
Q 2619 4750 2861 4703 
Q 3103 4656 3366 4563 
z
" transform="scale(0.015625)"/>
        <path id="DejaVuSans-30" d="M 2034 4250 
Q 1547 4250 1301 3770 
Q 1056 3291 1056 2328 
Q 1056 1369 1301 889 
Q 1547 409 2034 409 
Q 2525 409 2770 889 
Q 3016 1369 3016 2328 
Q 3016 3291 2770 3770 
Q 2525 4250 2034 4250 
z
M 2034 4750 
Q 2819 4750 3233 4129 
Q 3647 3509 3647 2328 
Q 3647 1150 3233 529 
Q 2819 -91 2034 -91 
Q 1250 -91 836 529 
Q 422 1150 422 2328 
Q 422 3509 836 4129 
Q 1250 4750 2034 4750 
z
" transform="scale(0.015625)"/>
       </defs>
       <use xlink:href="#DejaVuSans-31"/>
       <use xlink:href="#DejaVuSans-36" transform="translate(63.623047 0)"/>
       <use xlink:href="#DejaVuSans-30" transform="translate(127.246094 0)"/>
       <use xlink:href="#DejaVuSans-30" transform="translate(190.869141 0)"/>
      </g>
     </g>
    </g>
    <g id="xtick_2">
     <g id="line2d_2">
      <g>
       <use xlink:href="#m0a5655d97b" x="187.10375" y="390.04" style="stroke: #000000; stroke-width: 0.8"/>
      </g>
     </g>
     <g id="text_2">
      <!-- 1800 -->
      <g transform="translate(174.37875 404.638438) scale(0.1 -0.1)">
       <defs>
        <path id="DejaVuSans-38" d="M 2034 2216 
Q 1584 2216 1326 1975 
Q 1069 1734 1069 1313 
Q 1069 891 1326 650 
Q 1584 409 2034 409 
Q 2484 409 2743 651 
Q 3003 894 3003 1313 
Q 3003 1734 2745 1975 
Q 2488 2216 2034 2216 
z
M 1403 2484 
Q 997 2584 770 2862 
Q 544 3141 544 3541 
Q 544 4100 942 4425 
Q 1341 4750 2034 4750 
Q 2731 4750 3128 4425 
Q 3525 4100 3525 3541 
Q 3525 3141 3298 2862 
Q 3072 2584 2669 2484 
Q 3125 2378 3379 2068 
Q 3634 1759 3634 1313 
Q 3634 634 3220 271 
Q 2806 -91 2034 -91 
Q 1263 -91 848 271 
Q 434 634 434 1313 
Q 434 1759 690 2068 
Q 947 2378 1403 2484 
z
M 1172 3481 
Q 1172 3119 1398 2916 
Q 1625 2713 2034 2713 
Q 2441 2713 2670 2916 
Q 2900 3119 2900 3481 
Q 2900 3844 2670 4047 
Q 2441 4250 2034 4250 
Q 1625 4250 1398 4047 
Q 1172 3844 1172 3481 
z
" transform="scale(0.015625)"/>
       </defs>
       <use xlink:href="#DejaVuSans-31"/>
       <use xlink:href="#DejaVuSans-38" transform="translate(63.623047 0)"/>
       <use xlink:href="#DejaVuSans-30" transform="translate(127.246094 0)"/>
       <use xlink:href="#DejaVuSans-30" transform="translate(190.869141 0)"/>
      </g>
     </g>
    </g>
    <g id="xtick_3">
     <g id="line2d_3">
      <g>
       <use xlink:href="#m0a5655d97b" x="267.42625" y="390.04" style="stroke: #000000; stroke-width: 0.8"/>
      </g>
     </g>
     <g id="text_3">
      <!-- 2000 -->
      <g transform="translate(254.70125 404.638438) scale(0.1 -0.1)">
       <defs>
        <path id="DejaVuSans-32" d="M 1228 531 
L 3431 531 
L 3431 0 
L 469 0 
L 469 531 
Q 828 903 1448 1529 
Q 2069 2156 2228 2338 
Q 2531 2678 2651 2914 
Q 2772 3150 2772 3378 
Q 2772 3750 2511 3984 
Q 2250 4219 1831 4219 
Q 1534 4219 1204 4116 
Q 875 4013 500 3803 
L 500 4441 
Q 881 4594 1212 4672 
Q 1544 4750 1819 4750 
Q 2544 4750 2975 4387 
Q 3406 4025 3406 3419 
Q 3406 3131 3298 2873 
Q 3191 2616 2906 2266 
Q 2828 2175 2409 1742 
Q 1991 1309 1228 531 
z
" transform="scale(0.015625)"/>
       </defs>
       <use xlink:href="#DejaVuSans-32"/>
       <use xlink:href="#DejaVuSans-30" transform="translate(63.623047 0)"/>
       <use xlink:href="#DejaVuSans-30" transform="translate(127.246094 0)"/>
       <use xlink:href="#DejaVuSans-30" transform="translate(190.869141 0)"/>
      </g>
     </g>
    </g>
    <g id="xtick_4">
     <g id="line2d_4">
      <g>
       <use xlink:href="#m0a5655d97b" x="347.74875" y="390.04" style="stroke: #000000; stroke-width: 0.8"/>
      </g>
     </g>
     <g id="text_4">
      <!-- 2200 -->
      <g transform="translate(335.02375 404.638438) scale(0.1 -0.1)">
       <use xlink:href="#DejaVuSans-32"/>
       <use xlink:href="#DejaVuSans-32" transform="translate(63.623047 0)"/>
       <use xlink:href="#DejaVuSans-30" transform="translate(127.246094 0)"/>
       <use xlink:href="#DejaVuSans-30" transform="translate(190.869141 0)"/>
      </g>
     </g>
    </g>
    <g id="xtick_5">
     <g id="line2d_5">
      <g>
       <use xlink:href="#m0a5655d97b" x="428.07125" y="390.04" style="stroke: #000000; stroke-width: 0.8"/>
      </g>
     </g>
     <g id="text_5">
      <!-- 2400 -->
      <g transform="translate(415.34625 404.638438) scale(0.1 -0.1)">
       <defs>
        <path id="DejaVuSans-34" d="M 2419 4116 
L 825 1625 
L 2419 1625 
L 2419 4116 
z
M 2253 4666 
L 3047 4666 
L 3047 1625 
L 3713 1625 
L 3713 1100 
L 3047 1100 
L 3047 0 
L 2419 0 
L 2419 1100 
L 313 1100 
L 313 1709 
L 2253 4666 
z
" transform="scale(0.015625)"/>
       </defs>
       <use xlink:href="#DejaVuSans-32"/>
       <use xlink:href="#DejaVuSans-34" transform="translate(63.623047 0)"/>
       <use xlink:href="#DejaVuSans-30" transform="translate(127.246094 0)"/>
       <use xlink:href="#DejaVuSans-30" transform="translate(190.869141 0)"/>
      </g>
     </g>
    </g>
    <g id="xtick_6">
     <g id="line2d_6">
      <g>
       <use xlink:href="#m0a5655d97b" x="508.39375" y="390.04" style="stroke: #000000; stroke-width: 0.8"/>
      </g>
     </g>
     <g id="text_6">
      <!-- 2600 -->
      <g transform="translate(495.66875 404.638438) scale(0.1 -0.1)">
       <use xlink:href="#DejaVuSans-32"/>
       <use xlink:href="#DejaVuSans-36" transform="translate(63.623047 0)"/>
       <use xlink:href="#DejaVuSans-30" transform="translate(127.246094 0)"/>
       <use xlink:href="#DejaVuSans-30" transform="translate(190.869141 0)"/>
      </g>
     </g>
    </g>
    <g id="xtick_7">
     <g id="line2d_7">
      <g>
       <use xlink:href="#m0a5655d97b" x="588.71625" y="390.04" style="stroke: #000000; stroke-width: 0.8"/>
      </g>
     </g>
     <g id="text_7">
      <!-- 2800 -->
      <g transform="translate(575.99125 404.638438) scale(0.1 -0.1)">
       <use xlink:href="#DejaVuSans-32"/>
       <use xlink:href="#DejaVuSans-38" transform="translate(63.623047 0)"/>
       <use xlink:href="#DejaVuSans-30" transform="translate(127.246094 0)"/>
       <use xlink:href="#DejaVuSans-30" transform="translate(190.869141 0)"/>
      </g>
     </g>
    </g>
    <g id="xtick_8">
     <g id="line2d_8">
      <g>
       <use xlink:href="#m0a5655d97b" x="669.03875" y="390.04" style="stroke: #000000; stroke-width: 0.8"/>
      </g>
     </g>
     <g id="text_8">
      <!-- 3000 -->
      <g transform="translate(656.31375 404.638438) scale(0.1 -0.1)">
       <defs>
        <path id="DejaVuSans-33" d="M 2597 2516 
Q 3050 2419 3304 2112 
Q 3559 1806 3559 1356 
Q 3559 666 3084 287 
Q 2609 -91 1734 -91 
Q 1441 -91 1130 -33 
Q 819 25 488 141 
L 488 750 
Q 750 597 1062 519 
Q 1375 441 1716 441 
Q 2309 441 2620 675 
Q 2931 909 2931 1356 
Q 2931 1769 2642 2001 
Q 2353 2234 1838 2234 
L 1294 2234 
L 1294 2753 
L 1863 2753 
Q 2328 2753 2575 2939 
Q 2822 3125 2822 3475 
Q 2822 3834 2567 4026 
Q 2313 4219 1838 4219 
Q 1578 4219 1281 4162 
Q 984 4106 628 3988 
L 628 4550 
Q 988 4650 1302 4700 
Q 1616 4750 1894 4750 
Q 2613 4750 3031 4423 
Q 3450 4097 3450 3541 
Q 3450 3153 3228 2886 
Q 3006 2619 2597 2516 
z
" transform="scale(0.015625)"/>
       </defs>
       <use xlink:href="#DejaVuSans-33"/>
       <use xlink:href="#DejaVuSans-30" transform="translate(63.623047 0)"/>
       <use xlink:href="#DejaVuSans-30" transform="translate(127.246094 0)"/>
       <use xlink:href="#DejaVuSans-30" transform="translate(190.869141 0)"/>
      </g>
     </g>
    </g>
    <g id="text_9">
     <!-- Frequency (Hz) -->
     <g transform="translate(350.205313 418.316562) scale(0.1 -0.1)">
      <defs>
       <path id="DejaVuSans-46" d="M 628 4666 
L 3309 4666 
L 3309 4134 
L 1259 4134 
L 1259 2759 
L 3109 2759 
L 3109 2228 
L 1259 2228 
L 1259 0 
L 628 0 
L 628 4666 
z
" transform="scale(0.015625)"/>
       <path id="DejaVuSans-72" d="M 2631 2963 
Q 2534 3019 2420 3045 
Q 2306 3072 2169 3072 
Q 1681 3072 1420 2755 
Q 1159 2438 1159 1844 
L 1159 0 
L 581 0 
L 581 3500 
L 1159 3500 
L 1159 2956 
Q 1341 3275 1631 3429 
Q 1922 3584 2338 3584 
Q 2397 3584 2469 3576 
Q 2541 3569 2628 3553 
L 2631 2963 
z
" transform="scale(0.015625)"/>
       <path id="DejaVuSans-65" d="M 3597 1894 
L 3597 1613 
L 953 1613 
Q 991 1019 1311 708 
Q 1631 397 2203 397 
Q 2534 397 2845 478 
Q 3156 559 3463 722 
L 3463 178 
Q 3153 47 2828 -22 
Q 2503 -91 2169 -91 
Q 1331 -91 842 396 
Q 353 884 353 1716 
Q 353 2575 817 3079 
Q 1281 3584 2069 3584 
Q 2775 3584 3186 3129 
Q 3597 2675 3597 1894 
z
M 3022 2063 
Q 3016 2534 2758 2815 
Q 2500 3097 2075 3097 
Q 1594 3097 1305 2825 
Q 1016 2553 972 2059 
L 3022 2063 
z
" transform="scale(0.015625)"/>
       <path id="DejaVuSans-71" d="M 947 1747 
Q 947 1113 1208 752 
Q 1469 391 1925 391 
Q 2381 391 2643 752 
Q 2906 1113 2906 1747 
Q 2906 2381 2643 2742 
Q 2381 3103 1925 3103 
Q 1469 3103 1208 2742 
Q 947 2381 947 1747 
z
M 2906 525 
Q 2725 213 2448 61 
Q 2172 -91 1784 -91 
Q 1150 -91 751 415 
Q 353 922 353 1747 
Q 353 2572 751 3078 
Q 1150 3584 1784 3584 
Q 2172 3584 2448 3432 
Q 2725 3281 2906 2969 
L 2906 3500 
L 3481 3500 
L 3481 -1331 
L 2906 -1331 
L 2906 525 
z
" transform="scale(0.015625)"/>
       <path id="DejaVuSans-75" d="M 544 1381 
L 544 3500 
L 1119 3500 
L 1119 1403 
Q 1119 906 1312 657 
Q 1506 409 1894 409 
Q 2359 409 2629 706 
Q 2900 1003 2900 1516 
L 2900 3500 
L 3475 3500 
L 3475 0 
L 2900 0 
L 2900 538 
Q 2691 219 2414 64 
Q 2138 -91 1772 -91 
Q 1169 -91 856 284 
Q 544 659 544 1381 
z
M 1991 3584 
L 1991 3584 
z
" transform="scale(0.015625)"/>
       <path id="DejaVuSans-6e" d="M 3513 2113 
L 3513 0 
L 2938 0 
L 2938 2094 
Q 2938 2591 2744 2837 
Q 2550 3084 2163 3084 
Q 1697 3084 1428 2787 
Q 1159 2491 1159 1978 
L 1159 0 
L 581 0 
L 581 3500 
L 1159 3500 
L 1159 2956 
Q 1366 3272 1645 3428 
Q 1925 3584 2291 3584 
Q 2894 3584 3203 3211 
Q 3513 2838 3513 2113 
z
" transform="scale(0.015625)"/>
       <path id="DejaVuSans-63" d="M 3122 3366 
L 3122 2828 
Q 2878 2963 2633 3030 
Q 2388 3097 2138 3097 
Q 1578 3097 1268 2742 
Q 959 2388 959 1747 
Q 959 1106 1268 751 
Q 1578 397 2138 397 
Q 2388 397 2633 464 
Q 2878 531 3122 666 
L 3122 134 
Q 2881 22 2623 -34 
Q 2366 -91 2075 -91 
Q 1284 -91 818 406 
Q 353 903 353 1747 
Q 353 2603 823 3093 
Q 1294 3584 2113 3584 
Q 2378 3584 2631 3529 
Q 2884 3475 3122 3366 
z
" transform="scale(0.015625)"/>
       <path id="DejaVuSans-79" d="M 2059 -325 
Q 1816 -950 1584 -1140 
Q 1353 -1331 966 -1331 
L 506 -1331 
L 506 -850 
L 844 -850 
Q 1081 -850 1212 -737 
Q 1344 -625 1503 -206 
L 1606 56 
L 191 3500 
L 800 3500 
L 1894 763 
L 2988 3500 
L 3597 3500 
L 2059 -325 
z
" transform="scale(0.015625)"/>
       <path id="DejaVuSans-20" transform="scale(0.015625)"/>
       <path id="DejaVuSans-28" d="M 1984 4856 
Q 1566 4138 1362 3434 
Q 1159 2731 1159 2009 
Q 1159 1288 1364 580 
Q 1569 -128 1984 -844 
L 1484 -844 
Q 1016 -109 783 600 
Q 550 1309 550 2009 
Q 550 2706 781 3412 
Q 1013 4119 1484 4856 
L 1984 4856 
z
" transform="scale(0.015625)"/>
       <path id="DejaVuSans-48" d="M 628 4666 
L 1259 4666 
L 1259 2753 
L 3553 2753 
L 3553 4666 
L 4184 4666 
L 4184 0 
L 3553 0 
L 3553 2222 
L 1259 2222 
L 1259 0 
L 628 0 
L 628 4666 
z
" transform="scale(0.015625)"/>
       <path id="DejaVuSans-7a" d="M 353 3500 
L 3084 3500 
L 3084 2975 
L 922 459 
L 3084 459 
L 3084 0 
L 275 0 
L 275 525 
L 2438 3041 
L 353 3041 
L 353 3500 
z
" transform="scale(0.015625)"/>
       <path id="DejaVuSans-29" d="M 513 4856 
L 1013 4856 
Q 1481 4119 1714 3412 
Q 1947 2706 1947 2009 
Q 1947 1309 1714 600 
Q 1481 -109 1013 -844 
L 513 -844 
Q 928 -128 1133 580 
Q 1338 1288 1338 2009 
Q 1338 2731 1133 3434 
Q 928 4138 513 4856 
z
" transform="scale(0.015625)"/>
      </defs>
      <use xlink:href="#DejaVuSans-46"/>
      <use xlink:href="#DejaVuSans-72" transform="translate(50.269531 0)"/>
      <use xlink:href="#DejaVuSans-65" transform="translate(89.132812 0)"/>
      <use xlink:href="#DejaVuSans-71" transform="translate(150.65625 0)"/>
      <use xlink:href="#DejaVuSans-75" transform="translate(214.132812 0)"/>
      <use xlink:href="#DejaVuSans-65" transform="translate(277.511719 0)"/>
      <use xlink:href="#DejaVuSans-6e" transform="translate(339.035156 0)"/>
      <use xlink:href="#DejaVuSans-63" transform="translate(402.414062 0)"/>
      <use xlink:href="#DejaVuSans-79" transform="translate(457.394531 0)"/>
      <use xlink:href="#DejaVuSans-20" transform="translate(516.574219 0)"/>
      <use xlink:href="#DejaVuSans-28" transform="translate(548.361328 0)"/>
      <use xlink:href="#DejaVuSans-48" transform="translate(587.375 0)"/>
      <use xlink:href="#DejaVuSans-7a" transform="translate(662.570312 0)"/>
      <use xlink:href="#DejaVuSans-29" transform="translate(715.060547 0)"/>
     </g>
    </g>
   </g>
   <g id="matplotlib.axis_2">
    <g id="ytick_1">
     <g id="line2d_9">
      <defs>
       <path id="m123de24b90" d="M 0 0 
L -3.5 0 
" style="stroke: #000000; stroke-width: 0.8"/>
      </defs>
      <g>
       <use xlink:href="#m123de24b90" x="66.62" y="350.816031" style="stroke: #000000; stroke-width: 0.8"/>
      </g>
     </g>
     <g id="text_10">
      <!-- 0.0010 -->
      <g transform="translate(24.629375 354.61525) scale(0.1 -0.1)">
       <defs>
        <path id="DejaVuSans-2e" d="M 684 794 
L 1344 794 
L 1344 0 
L 684 0 
L 684 794 
z
" transform="scale(0.015625)"/>
       </defs>
       <use xlink:href="#DejaVuSans-30"/>
       <use xlink:href="#DejaVuSans-2e" transform="translate(63.623047 0)"/>
       <use xlink:href="#DejaVuSans-30" transform="translate(95.410156 0)"/>
       <use xlink:href="#DejaVuSans-30" transform="translate(159.033203 0)"/>
       <use xlink:href="#DejaVuSans-31" transform="translate(222.65625 0)"/>
       <use xlink:href="#DejaVuSans-30" transform="translate(286.279297 0)"/>
      </g>
     </g>
    </g>
    <g id="ytick_2">
     <g id="line2d_10">
      <g>
       <use xlink:href="#m123de24b90" x="66.62" y="292.865277" style="stroke: #000000; stroke-width: 0.8"/>
      </g>
     </g>
     <g id="text_11">
      <!-- 0.0015 -->
      <g transform="translate(24.629375 296.664496) scale(0.1 -0.1)">
       <defs>
        <path id="DejaVuSans-35" d="M 691 4666 
L 3169 4666 
L 3169 4134 
L 1269 4134 
L 1269 2991 
Q 1406 3038 1543 3061 
Q 1681 3084 1819 3084 
Q 2600 3084 3056 2656 
Q 3513 2228 3513 1497 
Q 3513 744 3044 326 
Q 2575 -91 1722 -91 
Q 1428 -91 1123 -41 
Q 819 9 494 109 
L 494 744 
Q 775 591 1075 516 
Q 1375 441 1709 441 
Q 2250 441 2565 725 
Q 2881 1009 2881 1497 
Q 2881 1984 2565 2268 
Q 2250 2553 1709 2553 
Q 1456 2553 1204 2497 
Q 953 2441 691 2322 
L 691 4666 
z
" transform="scale(0.015625)"/>
       </defs>
       <use xlink:href="#DejaVuSans-30"/>
       <use xlink:href="#DejaVuSans-2e" transform="translate(63.623047 0)"/>
       <use xlink:href="#DejaVuSans-30" transform="translate(95.410156 0)"/>
       <use xlink:href="#DejaVuSans-30" transform="translate(159.033203 0)"/>
       <use xlink:href="#DejaVuSans-31" transform="translate(222.65625 0)"/>
       <use xlink:href="#DejaVuSans-35" transform="translate(286.279297 0)"/>
      </g>
     </g>
    </g>
    <g id="ytick_3">
     <g id="line2d_11">
      <g>
       <use xlink:href="#m123de24b90" x="66.62" y="234.914522" style="stroke: #000000; stroke-width: 0.8"/>
      </g>
     </g>
     <g id="text_12">
      <!-- 0.0020 -->
      <g transform="translate(24.629375 238.713741) scale(0.1 -0.1)">
       <use xlink:href="#DejaVuSans-30"/>
       <use xlink:href="#DejaVuSans-2e" transform="translate(63.623047 0)"/>
       <use xlink:href="#DejaVuSans-30" transform="translate(95.410156 0)"/>
       <use xlink:href="#DejaVuSans-30" transform="translate(159.033203 0)"/>
       <use xlink:href="#DejaVuSans-32" transform="translate(222.65625 0)"/>
       <use xlink:href="#DejaVuSans-30" transform="translate(286.279297 0)"/>
      </g>
     </g>
    </g>
    <g id="ytick_4">
     <g id="line2d_12">
      <g>
       <use xlink:href="#m123de24b90" x="66.62" y="176.963768" style="stroke: #000000; stroke-width: 0.8"/>
      </g>
     </g>
     <g id="text_13">
      <!-- 0.0025 -->
      <g transform="translate(24.629375 180.762986) scale(0.1 -0.1)">
       <use xlink:href="#DejaVuSans-30"/>
       <use xlink:href="#DejaVuSans-2e" transform="translate(63.623047 0)"/>
       <use xlink:href="#DejaVuSans-30" transform="translate(95.410156 0)"/>
       <use xlink:href="#DejaVuSans-30" transform="translate(159.033203 0)"/>
       <use xlink:href="#DejaVuSans-32" transform="translate(222.65625 0)"/>
       <use xlink:href="#DejaVuSans-35" transform="translate(286.279297 0)"/>
      </g>
     </g>
    </g>
    <g id="ytick_5">
     <g id="line2d_13">
      <g>
       <use xlink:href="#m123de24b90" x="66.62" y="119.013013" style="stroke: #000000; stroke-width: 0.8"/>
      </g>
     </g>
     <g id="text_14">
      <!-- 0.0030 -->
      <g transform="translate(24.629375 122.812232) scale(0.1 -0.1)">
       <use xlink:href="#DejaVuSans-30"/>
       <use xlink:href="#DejaVuSans-2e" transform="translate(63.623047 0)"/>
       <use xlink:href="#DejaVuSans-30" transform="translate(95.410156 0)"/>
       <use xlink:href="#DejaVuSans-30" transform="translate(159.033203 0)"/>
       <use xlink:href="#DejaVuSans-33" transform="translate(222.65625 0)"/>
       <use xlink:href="#DejaVuSans-30" transform="translate(286.279297 0)"/>
      </g>
     </g>
    </g>
    <g id="ytick_6">
     <g id="line2d_14">
      <g>
       <use xlink:href="#m123de24b90" x="66.62" y="61.062258" style="stroke: #000000; stroke-width: 0.8"/>
      </g>
     </g>
     <g id="text_15">
      <!-- 0.0035 -->
      <g transform="translate(24.629375 64.861477) scale(0.1 -0.1)">
       <use xlink:href="#DejaVuSans-30"/>
       <use xlink:href="#DejaVuSans-2e" transform="translate(63.623047 0)"/>
       <use xlink:href="#DejaVuSans-30" transform="translate(95.410156 0)"/>
       <use xlink:href="#DejaVuSans-30" transform="translate(159.033203 0)"/>
       <use xlink:href="#DejaVuSans-33" transform="translate(222.65625 0)"/>
       <use xlink:href="#DejaVuSans-35" transform="translate(286.279297 0)"/>
      </g>
     </g>
    </g>
    <g id="text_16">
     <!-- Current (A) -->
     <g transform="translate(18.549688 236.1475) rotate(-90) scale(0.1 -0.1)">
      <defs>
       <path id="DejaVuSans-43" d="M 4122 4306 
L 4122 3641 
Q 3803 3938 3442 4084 
Q 3081 4231 2675 4231 
Q 1875 4231 1450 3742 
Q 1025 3253 1025 2328 
Q 1025 1406 1450 917 
Q 1875 428 2675 428 
Q 3081 428 3442 575 
Q 3803 722 4122 1019 
L 4122 359 
Q 3791 134 3420 21 
Q 3050 -91 2638 -91 
Q 1578 -91 968 557 
Q 359 1206 359 2328 
Q 359 3453 968 4101 
Q 1578 4750 2638 4750 
Q 3056 4750 3426 4639 
Q 3797 4528 4122 4306 
z
" transform="scale(0.015625)"/>
       <path id="DejaVuSans-74" d="M 1172 4494 
L 1172 3500 
L 2356 3500 
L 2356 3053 
L 1172 3053 
L 1172 1153 
Q 1172 725 1289 603 
Q 1406 481 1766 481 
L 2356 481 
L 2356 0 
L 1766 0 
Q 1100 0 847 248 
Q 594 497 594 1153 
L 594 3053 
L 172 3053 
L 172 3500 
L 594 3500 
L 594 4494 
L 1172 4494 
z
" transform="scale(0.015625)"/>
       <path id="DejaVuSans-41" d="M 2188 4044 
L 1331 1722 
L 3047 1722 
L 2188 4044 
z
M 1831 4666 
L 2547 4666 
L 4325 0 
L 3669 0 
L 3244 1197 
L 1141 1197 
L 716 0 
L 50 0 
L 1831 4666 
z
" transform="scale(0.015625)"/>
      </defs>
      <use xlink:href="#DejaVuSans-43"/>
      <use xlink:href="#DejaVuSans-75" transform="translate(69.824219 0)"/>
      <use xlink:href="#DejaVuSans-72" transform="translate(133.203125 0)"/>
      <use xlink:href="#DejaVuSans-72" transform="translate(172.566406 0)"/>
      <use xlink:href="#DejaVuSans-65" transform="translate(211.429688 0)"/>
      <use xlink:href="#DejaVuSans-6e" transform="translate(272.953125 0)"/>
      <use xlink:href="#DejaVuSans-74" transform="translate(336.332031 0)"/>
      <use xlink:href="#DejaVuSans-20" transform="translate(375.541016 0)"/>
      <use xlink:href="#DejaVuSans-28" transform="translate(407.328125 0)"/>
      <use xlink:href="#DejaVuSans-41" transform="translate(446.341797 0)"/>
      <use xlink:href="#DejaVuSans-29" transform="translate(514.75 0)"/>
     </g>
    </g>
   </g>
   <g id="line2d_15">
    <path d="M 396.550067 390.04 
L 396.550067 26.88 
" clip-path="url(#pdaaf66052a)" style="fill: none; stroke-dasharray: 1.85,0.8; stroke-dashoffset: 0; stroke: #008000; stroke-width: 0.5"/>
   </g>
   <g id="line2d_16">
    <path d="M 395.339831 390.04 
L 395.339831 26.88 
" clip-path="url(#pdaaf66052a)" style="fill: none; stroke-dasharray: 0.5,0.825; stroke-dashoffset: 0; stroke: #0000ff; stroke-width: 0.5"/>
   </g>
   <g id="line2d_17">
    <path d="M 396.544669 390.04 
L 396.544669 26.88 
" clip-path="url(#pdaaf66052a)" style="fill: none; stroke-dasharray: 0.5,0.825; stroke-dashoffset: 0; stroke: #ffa500; stroke-width: 0.5"/>
   </g>
   <g id="line2d_18">
    <path d="M 106.78125 365.071917 
L 117.475495 360.414984 
L 127.264496 355.912336 
L 136.412517 351.461725 
L 145.076991 347.000584 
L 153.359127 342.487447 
L 161.332018 337.890694 
L 169.051891 333.184037 
L 176.563726 328.344271 
L 183.895637 323.35618 
L 191.064492 318.210532 
L 198.014064 312.949709 
L 204.772467 307.555023 
L 211.362191 302.01079 
L 217.816971 296.28966 
L 224.159299 290.370886 
L 230.406043 284.236645 
L 236.545956 277.8953 
L 242.590285 271.33246 
L 248.555896 264.526181 
L 254.454037 257.458898 
L 260.301573 250.104235 
L 266.104128 242.44776 
L 271.878571 234.458872 
L 277.669881 226.065252 
L 283.483682 217.245516 
L 289.319973 207.985654 
L 295.184377 198.261895 
L 301.076895 188.0585 
L 306.997525 177.35942 
L 313.188042 165.701806 
L 320.857311 150.759268 
L 349.127901 95.20492 
L 354.654948 85.076263 
L 359.158675 77.273244 
L 363.083272 70.906194 
L 366.608662 65.600217 
L 369.819184 61.159913 
L 372.776688 57.439506 
L 375.486796 54.377509 
L 377.971999 51.896317 
L 380.271655 49.906624 
L 382.520708 48.254587 
L 384.848477 46.820562 
L 387.294322 45.575723 
L 389.807638 44.542405 
L 391.910502 43.909539 
L 393.760348 43.579612 
L 395.632684 43.478748 
L 396.813437 43.752862 
L 402.874633 45.143853 
L 404.831309 45.887199 
L 406.782362 46.874066 
L 408.840245 48.168631 
L 411.027448 49.811989 
L 413.372086 51.857737 
L 415.896647 54.361944 
L 418.646114 57.410227 
L 421.671089 61.105157 
L 425.055913 65.601108 
L 428.969265 71.182606 
L 433.439256 77.952285 
L 438.443398 85.945411 
L 444.262821 95.675099 
L 451.684695 108.545007 
L 473.939069 147.421655 
L 481.214754 159.468825 
L 488.164326 170.550983 
L 494.815899 180.744648 
L 501.203208 190.131416 
L 507.348744 198.772155 
L 513.314356 206.779061 
L 519.296835 214.437874 
L 525.313051 221.780098 
L 531.368624 228.820926 
L 537.474802 235.580868 
L 543.642828 242.078619 
L 549.883949 248.331315 
L 556.215032 254.360101 
L 562.658567 260.189226 
L 569.231423 265.835602 
L 575.961713 271.323923 
L 582.877549 276.676399 
L 590.023913 281.925598 
L 597.36707 287.043883 
L 604.845169 291.985294 
L 612.486325 296.767884 
L 620.31865 301.407468 
L 628.375881 305.921198 
L 636.697375 310.327297 
L 645.339359 314.650478 
L 654.38055 318.923245 
L 663.922156 323.184575 
L 669.03875 325.37565 
L 669.03875 325.37565 
" clip-path="url(#pdaaf66052a)" style="fill: none; stroke: #0000ff; stroke-linecap: square"/>
   </g>
   <g id="line2d_19">
    <path d="M 106.78125 373.532727 
L 120.146244 369.143116 
L 133.410031 364.55288 
L 146.572611 359.76259 
L 159.645229 354.768593 
L 172.633507 349.568886 
L 185.537446 344.163609 
L 198.55946 338.466152 
L 212.447359 332.143925 
L 227.476652 325.053989 
L 245.075488 316.493591 
L 295.088792 292.010324 
L 305.428811 287.319316 
L 314.537474 283.427486 
L 323.207571 279.962784 
L 331.529065 276.874697 
L 339.546938 274.134545 
L 347.294923 271.71981 
L 354.548118 269.686632 
L 360.929804 268.124616 
L 366.737982 266.928559 
L 372.130085 266.042226 
L 377.207321 265.430606 
L 382.031539 265.071574 
L 386.647719 264.949499 
L 395.531477 264.823822 
L 397.212643 264.734341 
L 403.459387 264.955595 
L 409.200093 265.322722 
L 415.171328 265.930248 
L 421.485542 266.798501 
L 428.238322 267.954458 
L 435.457781 269.417888 
L 443.04271 271.184549 
L 451.077451 273.286969 
L 459.680076 275.771038 
L 469.036135 278.707991 
L 479.45487 282.21659 
L 491.537905 286.527975 
L 507.29814 292.404184 
L 562.703548 313.246037 
L 579.560197 319.229929 
L 595.326055 324.5931 
L 610.743309 329.602528 
L 626.036866 334.338607 
L 641.217971 338.807634 
L 656.281 343.010718 
L 669.03875 346.388594 
L 669.03875 346.388594 
" clip-path="url(#pdaaf66052a)" style="fill: none; stroke: #ffa500; stroke-linecap: square"/>
   </g>
   <g id="line2d_20">
    <defs>
     <path id="m18765e37c4" d="M 0 2 
C 0.530406 2 1.03916 1.789267 1.414214 1.414214 
C 1.789267 1.03916 2 0.530406 2 0 
C 2 -0.530406 1.789267 -1.03916 1.414214 -1.414214 
C 1.03916 -1.789267 0.530406 -2 0 -2 
C -0.530406 -2 -1.03916 -1.789267 -1.414214 -1.414214 
C -1.789267 -1.03916 -2 -0.530406 -2 0 
C -2 0.530406 -1.789267 1.03916 -1.414214 1.414214 
C -1.03916 1.789267 -0.530406 2 0 2 
z
" style="stroke: #0000ff"/>
    </defs>
    <g clip-path="url(#pdaaf66052a)">
     <use xlink:href="#m18765e37c4" x="312.311786" y="167.377838" style="fill: #0000ff; stroke: #0000ff"/>
     <use xlink:href="#m18765e37c4" x="486.14665" y="167.377838" style="fill: #0000ff; stroke: #0000ff"/>
    </g>
   </g>
   <g id="line2d_21">
    <defs>
     <path id="m289bf904e0" d="M 0 2 
C 0.530406 2 1.03916 1.789267 1.414214 1.414214 
C 1.789267 1.03916 2 0.530406 2 0 
C 2 -0.530406 1.789267 -1.03916 1.414214 -1.414214 
C 1.03916 -1.789267 0.530406 -2 0 -2 
C -0.530406 -2 -1.03916 -1.789267 -1.414214 -1.414214 
C -1.789267 -1.03916 -2 -0.530406 -2 0 
C -2 0.530406 -1.789267 1.03916 -1.414214 1.414214 
C -1.03916 1.789267 -0.530406 2 0 2 
z
" style="stroke: #ff8c00"/>
    </defs>
    <g clip-path="url(#pdaaf66052a)">
     <use xlink:href="#m289bf904e0" x="229.911935" y="323.883703" style="fill: #ff8c00; stroke: #ff8c00"/>
     <use xlink:href="#m289bf904e0" x="593.199328" y="323.883703" style="fill: #ff8c00; stroke: #ff8c00"/>
    </g>
   </g>
   <g id="line2d_22">
    <path d="M 312.311786 167.377838 
L 486.14665 167.377838 
" clip-path="url(#pdaaf66052a)" style="fill: none; stroke-dasharray: 2.96,1.28; stroke-dashoffset: 0; stroke: #0000ff; stroke-opacity: 0.7; stroke-width: 0.8"/>
   </g>
   <g id="line2d_23">
    <path d="M 229.911935 323.883703 
L 593.199328 323.883703 
" clip-path="url(#pdaaf66052a)" style="fill: none; stroke-dasharray: 2.96,1.28; stroke-dashoffset: 0; stroke: #ffa500; stroke-opacity: 0.7; stroke-width: 0.8"/>
   </g>
   <g id="patch_3">
    <path d="M 66.62 390.04 
L 66.62 26.88 
" style="fill: none; stroke: #000000; stroke-width: 0.8; stroke-linejoin: miter; stroke-linecap: square"/>
   </g>
   <g id="patch_4">
    <path d="M 709.2 390.04 
L 709.2 26.88 
" style="fill: none; stroke: #000000; stroke-width: 0.8; stroke-linejoin: miter; stroke-linecap: square"/>
   </g>
   <g id="patch_5">
    <path d="M 66.62 390.04 
L 709.2 390.04 
" style="fill: none; stroke: #000000; stroke-width: 0.8; stroke-linejoin: miter; stroke-linecap: square"/>
   </g>
   <g id="patch_6">
    <path d="M 66.62 26.88 
L 709.2 26.88 
" style="fill: none; stroke: #000000; stroke-width: 0.8; stroke-linejoin: miter; stroke-linecap: square"/>
   </g>
   <g id="text_17">
    <!-- Current vs Frequency for Different Resistances -->
    <g transform="translate(248.082813 20.88) scale(0.12 -0.12)">
     <defs>
      <path id="DejaVuSans-76" d="M 191 3500 
L 800 3500 
L 1894 563 
L 2988 3500 
L 3597 3500 
L 2284 0 
L 1503 0 
L 191 3500 
z
" transform="scale(0.015625)"/>
      <path id="DejaVuSans-73" d="M 2834 3397 
L 2834 2853 
Q 2591 2978 2328 3040 
Q 2066 3103 1784 3103 
Q 1356 3103 1142 2972 
Q 928 2841 928 2578 
Q 928 2378 1081 2264 
Q 1234 2150 1697 2047 
L 1894 2003 
Q 2506 1872 2764 1633 
Q 3022 1394 3022 966 
Q 3022 478 2636 193 
Q 2250 -91 1575 -91 
Q 1294 -91 989 -36 
Q 684 19 347 128 
L 347 722 
Q 666 556 975 473 
Q 1284 391 1588 391 
Q 1994 391 2212 530 
Q 2431 669 2431 922 
Q 2431 1156 2273 1281 
Q 2116 1406 1581 1522 
L 1381 1569 
Q 847 1681 609 1914 
Q 372 2147 372 2553 
Q 372 3047 722 3315 
Q 1072 3584 1716 3584 
Q 2034 3584 2315 3537 
Q 2597 3491 2834 3397 
z
" transform="scale(0.015625)"/>
      <path id="DejaVuSans-66" d="M 2375 4863 
L 2375 4384 
L 1825 4384 
Q 1516 4384 1395 4259 
Q 1275 4134 1275 3809 
L 1275 3500 
L 2222 3500 
L 2222 3053 
L 1275 3053 
L 1275 0 
L 697 0 
L 697 3053 
L 147 3053 
L 147 3500 
L 697 3500 
L 697 3744 
Q 697 4328 969 4595 
Q 1241 4863 1831 4863 
L 2375 4863 
z
" transform="scale(0.015625)"/>
      <path id="DejaVuSans-6f" d="M 1959 3097 
Q 1497 3097 1228 2736 
Q 959 2375 959 1747 
Q 959 1119 1226 758 
Q 1494 397 1959 397 
Q 2419 397 2687 759 
Q 2956 1122 2956 1747 
Q 2956 2369 2687 2733 
Q 2419 3097 1959 3097 
z
M 1959 3584 
Q 2709 3584 3137 3096 
Q 3566 2609 3566 1747 
Q 3566 888 3137 398 
Q 2709 -91 1959 -91 
Q 1206 -91 779 398 
Q 353 888 353 1747 
Q 353 2609 779 3096 
Q 1206 3584 1959 3584 
z
" transform="scale(0.015625)"/>
      <path id="DejaVuSans-44" d="M 1259 4147 
L 1259 519 
L 2022 519 
Q 2988 519 3436 956 
Q 3884 1394 3884 2338 
Q 3884 3275 3436 3711 
Q 2988 4147 2022 4147 
L 1259 4147 
z
M 628 4666 
L 1925 4666 
Q 3281 4666 3915 4102 
Q 4550 3538 4550 2338 
Q 4550 1131 3912 565 
Q 3275 0 1925 0 
L 628 0 
L 628 4666 
z
" transform="scale(0.015625)"/>
      <path id="DejaVuSans-69" d="M 603 3500 
L 1178 3500 
L 1178 0 
L 603 0 
L 603 3500 
z
M 603 4863 
L 1178 4863 
L 1178 4134 
L 603 4134 
L 603 4863 
z
" transform="scale(0.015625)"/>
      <path id="DejaVuSans-52" d="M 2841 2188 
Q 3044 2119 3236 1894 
Q 3428 1669 3622 1275 
L 4263 0 
L 3584 0 
L 2988 1197 
Q 2756 1666 2539 1819 
Q 2322 1972 1947 1972 
L 1259 1972 
L 1259 0 
L 628 0 
L 628 4666 
L 2053 4666 
Q 2853 4666 3247 4331 
Q 3641 3997 3641 3322 
Q 3641 2881 3436 2590 
Q 3231 2300 2841 2188 
z
M 1259 4147 
L 1259 2491 
L 2053 2491 
Q 2509 2491 2742 2702 
Q 2975 2913 2975 3322 
Q 2975 3731 2742 3939 
Q 2509 4147 2053 4147 
L 1259 4147 
z
" transform="scale(0.015625)"/>
      <path id="DejaVuSans-61" d="M 2194 1759 
Q 1497 1759 1228 1600 
Q 959 1441 959 1056 
Q 959 750 1161 570 
Q 1363 391 1709 391 
Q 2188 391 2477 730 
Q 2766 1069 2766 1631 
L 2766 1759 
L 2194 1759 
z
M 3341 1997 
L 3341 0 
L 2766 0 
L 2766 531 
Q 2569 213 2275 61 
Q 1981 -91 1556 -91 
Q 1019 -91 701 211 
Q 384 513 384 1019 
Q 384 1609 779 1909 
Q 1175 2209 1959 2209 
L 2766 2209 
L 2766 2266 
Q 2766 2663 2505 2880 
Q 2244 3097 1772 3097 
Q 1472 3097 1187 3025 
Q 903 2953 641 2809 
L 641 3341 
Q 956 3463 1253 3523 
Q 1550 3584 1831 3584 
Q 2591 3584 2966 3190 
Q 3341 2797 3341 1997 
z
" transform="scale(0.015625)"/>
     </defs>
     <use xlink:href="#DejaVuSans-43"/>
     <use xlink:href="#DejaVuSans-75" transform="translate(69.824219 0)"/>
     <use xlink:href="#DejaVuSans-72" transform="translate(133.203125 0)"/>
     <use xlink:href="#DejaVuSans-72" transform="translate(172.566406 0)"/>
     <use xlink:href="#DejaVuSans-65" transform="translate(211.429688 0)"/>
     <use xlink:href="#DejaVuSans-6e" transform="translate(272.953125 0)"/>
     <use xlink:href="#DejaVuSans-74" transform="translate(336.332031 0)"/>
     <use xlink:href="#DejaVuSans-20" transform="translate(375.541016 0)"/>
     <use xlink:href="#DejaVuSans-76" transform="translate(407.328125 0)"/>
     <use xlink:href="#DejaVuSans-73" transform="translate(466.507812 0)"/>
     <use xlink:href="#DejaVuSans-20" transform="translate(518.607422 0)"/>
     <use xlink:href="#DejaVuSans-46" transform="translate(550.394531 0)"/>
     <use xlink:href="#DejaVuSans-72" transform="translate(600.664062 0)"/>
     <use xlink:href="#DejaVuSans-65" transform="translate(639.527344 0)"/>
     <use xlink:href="#DejaVuSans-71" transform="translate(701.050781 0)"/>
     <use xlink:href="#DejaVuSans-75" transform="translate(764.527344 0)"/>
     <use xlink:href="#DejaVuSans-65" transform="translate(827.90625 0)"/>
     <use xlink:href="#DejaVuSans-6e" transform="translate(889.429688 0)"/>
     <use xlink:href="#DejaVuSans-63" transform="translate(952.808594 0)"/>
     <use xlink:href="#DejaVuSans-79" transform="translate(1007.789062 0)"/>
     <use xlink:href="#DejaVuSans-20" transform="translate(1066.96875 0)"/>
     <use xlink:href="#DejaVuSans-66" transform="translate(1098.755859 0)"/>
     <use xlink:href="#DejaVuSans-6f" transform="translate(1133.960938 0)"/>
     <use xlink:href="#DejaVuSans-72" transform="translate(1195.142578 0)"/>
     <use xlink:href="#DejaVuSans-20" transform="translate(1236.255859 0)"/>
     <use xlink:href="#DejaVuSans-44" transform="translate(1268.042969 0)"/>
     <use xlink:href="#DejaVuSans-69" transform="translate(1345.044922 0)"/>
     <use xlink:href="#DejaVuSans-66" transform="translate(1372.828125 0)"/>
     <use xlink:href="#DejaVuSans-66" transform="translate(1408.033203 0)"/>
     <use xlink:href="#DejaVuSans-65" transform="translate(1443.238281 0)"/>
     <use xlink:href="#DejaVuSans-72" transform="translate(1504.761719 0)"/>
     <use xlink:href="#DejaVuSans-65" transform="translate(1543.625 0)"/>
     <use xlink:href="#DejaVuSans-6e" transform="translate(1605.148438 0)"/>
     <use xlink:href="#DejaVuSans-74" transform="translate(1668.527344 0)"/>
     <use xlink:href="#DejaVuSans-20" transform="translate(1707.736328 0)"/>
     <use xlink:href="#DejaVuSans-52" transform="translate(1739.523438 0)"/>
     <use xlink:href="#DejaVuSans-65" transform="translate(1804.505859 0)"/>
     <use xlink:href="#DejaVuSans-73" transform="translate(1866.029297 0)"/>
     <use xlink:href="#DejaVuSans-69" transform="translate(1918.128906 0)"/>
     <use xlink:href="#DejaVuSans-73" transform="translate(1945.912109 0)"/>
     <use xlink:href="#DejaVuSans-74" transform="translate(1998.011719 0)"/>
     <use xlink:href="#DejaVuSans-61" transform="translate(2037.220703 0)"/>
     <use xlink:href="#DejaVuSans-6e" transform="translate(2098.5 0)"/>
     <use xlink:href="#DejaVuSans-63" transform="translate(2161.878906 0)"/>
     <use xlink:href="#DejaVuSans-65" transform="translate(2216.859375 0)"/>
     <use xlink:href="#DejaVuSans-73" transform="translate(2278.382812 0)"/>
    </g>
   </g>
   <g id="legend_1">
    <g id="patch_7">
     <path d="M 73.62 197.920625 
L 226.255938 197.920625 
Q 228.255938 197.920625 228.255938 195.920625 
L 228.255938 33.88 
Q 228.255938 31.88 226.255938 31.88 
L 73.62 31.88 
Q 71.62 31.88 71.62 33.88 
L 71.62 195.920625 
Q 71.62 197.920625 73.62 197.920625 
z
" style="fill: #ffffff; opacity: 0.8; stroke: #cccccc; stroke-linejoin: miter"/>
    </g>
    <g id="PathCollection_3">
     <g>
      <use xlink:href="#m96f1395b5a" x="85.62" y="40.853437" style="fill: #0000ff; stroke: #0000ff"/>
     </g>
    </g>
    <g id="text_18">
     <!-- R = 200 Ω Data -->
     <g transform="translate(103.62 43.478437) scale(0.1 -0.1)">
      <defs>
       <path id="DejaVuSans-3d" d="M 678 2906 
L 4684 2906 
L 4684 2381 
L 678 2381 
L 678 2906 
z
M 678 1631 
L 4684 1631 
L 4684 1100 
L 678 1100 
L 678 1631 
z
" transform="scale(0.015625)"/>
       <path id="DejaVuSans-3a9" d="M 4647 556 
L 4647 0 
L 2772 0 
L 2772 556 
Q 3325 859 3634 1378 
Q 3944 1897 3944 2528 
Q 3944 3278 3531 3731 
Q 3119 4184 2444 4184 
Q 1769 4184 1355 3729 
Q 941 3275 941 2528 
Q 941 1897 1250 1378 
Q 1563 859 2119 556 
L 2119 0 
L 244 0 
L 244 556 
L 1241 556 
Q 747 991 519 1456 
Q 294 1922 294 2497 
Q 294 3491 894 4106 
Q 1491 4722 2444 4722 
Q 3391 4722 3994 4106 
Q 4594 3494 4594 2528 
Q 4594 1922 4372 1459 
Q 4150 997 3647 556 
L 4647 556 
z
" transform="scale(0.015625)"/>
      </defs>
      <use xlink:href="#DejaVuSans-52"/>
      <use xlink:href="#DejaVuSans-20" transform="translate(69.482422 0)"/>
      <use xlink:href="#DejaVuSans-3d" transform="translate(101.269531 0)"/>
      <use xlink:href="#DejaVuSans-20" transform="translate(185.058594 0)"/>
      <use xlink:href="#DejaVuSans-32" transform="translate(216.845703 0)"/>
      <use xlink:href="#DejaVuSans-30" transform="translate(280.46875 0)"/>
      <use xlink:href="#DejaVuSans-30" transform="translate(344.091797 0)"/>
      <use xlink:href="#DejaVuSans-20" transform="translate(407.714844 0)"/>
      <use xlink:href="#DejaVuSans-3a9" transform="translate(439.501953 0)"/>
      <use xlink:href="#DejaVuSans-20" transform="translate(515.917969 0)"/>
      <use xlink:href="#DejaVuSans-44" transform="translate(547.705078 0)"/>
      <use xlink:href="#DejaVuSans-61" transform="translate(624.707031 0)"/>
      <use xlink:href="#DejaVuSans-74" transform="translate(685.986328 0)"/>
      <use xlink:href="#DejaVuSans-61" transform="translate(725.195312 0)"/>
     </g>
    </g>
    <g id="PathCollection_4">
     <g>
      <use xlink:href="#md8361e597d" x="85.62" y="55.531563" style="fill: #ffa500; stroke: #ffa500"/>
     </g>
    </g>
    <g id="text_19">
     <!-- R = 500 Ω Data -->
     <g transform="translate(103.62 58.156563) scale(0.1 -0.1)">
      <use xlink:href="#DejaVuSans-52"/>
      <use xlink:href="#DejaVuSans-20" transform="translate(69.482422 0)"/>
      <use xlink:href="#DejaVuSans-3d" transform="translate(101.269531 0)"/>
      <use xlink:href="#DejaVuSans-20" transform="translate(185.058594 0)"/>
      <use xlink:href="#DejaVuSans-35" transform="translate(216.845703 0)"/>
      <use xlink:href="#DejaVuSans-30" transform="translate(280.46875 0)"/>
      <use xlink:href="#DejaVuSans-30" transform="translate(344.091797 0)"/>
      <use xlink:href="#DejaVuSans-20" transform="translate(407.714844 0)"/>
      <use xlink:href="#DejaVuSans-3a9" transform="translate(439.501953 0)"/>
      <use xlink:href="#DejaVuSans-20" transform="translate(515.917969 0)"/>
      <use xlink:href="#DejaVuSans-44" transform="translate(547.705078 0)"/>
      <use xlink:href="#DejaVuSans-61" transform="translate(624.707031 0)"/>
      <use xlink:href="#DejaVuSans-74" transform="translate(685.986328 0)"/>
      <use xlink:href="#DejaVuSans-61" transform="translate(725.195312 0)"/>
     </g>
    </g>
    <g id="line2d_24">
     <path d="M 75.62 69.334687 
L 85.62 69.334687 
L 95.62 69.334687 
" style="fill: none; stroke-dasharray: 1.85,0.8; stroke-dashoffset: 0; stroke: #008000; stroke-width: 0.5"/>
    </g>
    <g id="text_20">
     <!-- Theoretical f0 -->
     <g transform="translate(103.62 72.834687) scale(0.1 -0.1)">
      <defs>
       <path id="DejaVuSans-54" d="M -19 4666 
L 3928 4666 
L 3928 4134 
L 2272 4134 
L 2272 0 
L 1638 0 
L 1638 4134 
L -19 4134 
L -19 4666 
z
" transform="scale(0.015625)"/>
       <path id="DejaVuSans-68" d="M 3513 2113 
L 3513 0 
L 2938 0 
L 2938 2094 
Q 2938 2591 2744 2837 
Q 2550 3084 2163 3084 
Q 1697 3084 1428 2787 
Q 1159 2491 1159 1978 
L 1159 0 
L 581 0 
L 581 4863 
L 1159 4863 
L 1159 2956 
Q 1366 3272 1645 3428 
Q 1925 3584 2291 3584 
Q 2894 3584 3203 3211 
Q 3513 2838 3513 2113 
z
" transform="scale(0.015625)"/>
       <path id="DejaVuSans-6c" d="M 603 4863 
L 1178 4863 
L 1178 0 
L 603 0 
L 603 4863 
z
" transform="scale(0.015625)"/>
      </defs>
      <use xlink:href="#DejaVuSans-54"/>
      <use xlink:href="#DejaVuSans-68" transform="translate(61.083984 0)"/>
      <use xlink:href="#DejaVuSans-65" transform="translate(124.462891 0)"/>
      <use xlink:href="#DejaVuSans-6f" transform="translate(185.986328 0)"/>
      <use xlink:href="#DejaVuSans-72" transform="translate(247.167969 0)"/>
      <use xlink:href="#DejaVuSans-65" transform="translate(286.03125 0)"/>
      <use xlink:href="#DejaVuSans-74" transform="translate(347.554688 0)"/>
      <use xlink:href="#DejaVuSans-69" transform="translate(386.763672 0)"/>
      <use xlink:href="#DejaVuSans-63" transform="translate(414.546875 0)"/>
      <use xlink:href="#DejaVuSans-61" transform="translate(469.527344 0)"/>
      <use xlink:href="#DejaVuSans-6c" transform="translate(530.806641 0)"/>
      <use xlink:href="#DejaVuSans-20" transform="translate(558.589844 0)"/>
      <use xlink:href="#DejaVuSans-66" transform="translate(590.376953 0)"/>
      <use xlink:href="#DejaVuSans-30" transform="translate(625.582031 0)"/>
     </g>
    </g>
    <g id="line2d_25">
     <path d="M 75.62 84.012812 
L 85.62 84.012812 
L 95.62 84.012812 
" style="fill: none; stroke-dasharray: 0.5,0.825; stroke-dashoffset: 0; stroke: #0000ff; stroke-width: 0.5"/>
    </g>
    <g id="text_21">
     <!-- Experimental f0 (200 Ω) -->
     <g transform="translate(103.62 87.512812) scale(0.1 -0.1)">
      <defs>
       <path id="DejaVuSans-45" d="M 628 4666 
L 3578 4666 
L 3578 4134 
L 1259 4134 
L 1259 2753 
L 3481 2753 
L 3481 2222 
L 1259 2222 
L 1259 531 
L 3634 531 
L 3634 0 
L 628 0 
L 628 4666 
z
" transform="scale(0.015625)"/>
       <path id="DejaVuSans-78" d="M 3513 3500 
L 2247 1797 
L 3578 0 
L 2900 0 
L 1881 1375 
L 863 0 
L 184 0 
L 1544 1831 
L 300 3500 
L 978 3500 
L 1906 2253 
L 2834 3500 
L 3513 3500 
z
" transform="scale(0.015625)"/>
       <path id="DejaVuSans-70" d="M 1159 525 
L 1159 -1331 
L 581 -1331 
L 581 3500 
L 1159 3500 
L 1159 2969 
Q 1341 3281 1617 3432 
Q 1894 3584 2278 3584 
Q 2916 3584 3314 3078 
Q 3713 2572 3713 1747 
Q 3713 922 3314 415 
Q 2916 -91 2278 -91 
Q 1894 -91 1617 61 
Q 1341 213 1159 525 
z
M 3116 1747 
Q 3116 2381 2855 2742 
Q 2594 3103 2138 3103 
Q 1681 3103 1420 2742 
Q 1159 2381 1159 1747 
Q 1159 1113 1420 752 
Q 1681 391 2138 391 
Q 2594 391 2855 752 
Q 3116 1113 3116 1747 
z
" transform="scale(0.015625)"/>
       <path id="DejaVuSans-6d" d="M 3328 2828 
Q 3544 3216 3844 3400 
Q 4144 3584 4550 3584 
Q 5097 3584 5394 3201 
Q 5691 2819 5691 2113 
L 5691 0 
L 5113 0 
L 5113 2094 
Q 5113 2597 4934 2840 
Q 4756 3084 4391 3084 
Q 3944 3084 3684 2787 
Q 3425 2491 3425 1978 
L 3425 0 
L 2847 0 
L 2847 2094 
Q 2847 2600 2669 2842 
Q 2491 3084 2119 3084 
Q 1678 3084 1418 2786 
Q 1159 2488 1159 1978 
L 1159 0 
L 581 0 
L 581 3500 
L 1159 3500 
L 1159 2956 
Q 1356 3278 1631 3431 
Q 1906 3584 2284 3584 
Q 2666 3584 2933 3390 
Q 3200 3197 3328 2828 
z
" transform="scale(0.015625)"/>
      </defs>
      <use xlink:href="#DejaVuSans-45"/>
      <use xlink:href="#DejaVuSans-78" transform="translate(63.183594 0)"/>
      <use xlink:href="#DejaVuSans-70" transform="translate(122.363281 0)"/>
      <use xlink:href="#DejaVuSans-65" transform="translate(185.839844 0)"/>
      <use xlink:href="#DejaVuSans-72" transform="translate(247.363281 0)"/>
      <use xlink:href="#DejaVuSans-69" transform="translate(288.476562 0)"/>
      <use xlink:href="#DejaVuSans-6d" transform="translate(316.259766 0)"/>
      <use xlink:href="#DejaVuSans-65" transform="translate(413.671875 0)"/>
      <use xlink:href="#DejaVuSans-6e" transform="translate(475.195312 0)"/>
      <use xlink:href="#DejaVuSans-74" transform="translate(538.574219 0)"/>
      <use xlink:href="#DejaVuSans-61" transform="translate(577.783203 0)"/>
      <use xlink:href="#DejaVuSans-6c" transform="translate(639.0625 0)"/>
      <use xlink:href="#DejaVuSans-20" transform="translate(666.845703 0)"/>
      <use xlink:href="#DejaVuSans-66" transform="translate(698.632812 0)"/>
      <use xlink:href="#DejaVuSans-30" transform="translate(733.837891 0)"/>
      <use xlink:href="#DejaVuSans-20" transform="translate(797.460938 0)"/>
      <use xlink:href="#DejaVuSans-28" transform="translate(829.248047 0)"/>
      <use xlink:href="#DejaVuSans-32" transform="translate(868.261719 0)"/>
      <use xlink:href="#DejaVuSans-30" transform="translate(931.884766 0)"/>
      <use xlink:href="#DejaVuSans-30" transform="translate(995.507812 0)"/>
      <use xlink:href="#DejaVuSans-20" transform="translate(1059.130859 0)"/>
      <use xlink:href="#DejaVuSans-3a9" transform="translate(1090.917969 0)"/>
      <use xlink:href="#DejaVuSans-29" transform="translate(1167.333984 0)"/>
     </g>
    </g>
    <g id="line2d_26">
     <path d="M 75.62 98.690938 
L 85.62 98.690938 
L 95.62 98.690938 
" style="fill: none; stroke-dasharray: 0.5,0.825; stroke-dashoffset: 0; stroke: #ffa500; stroke-width: 0.5"/>
    </g>
    <g id="text_22">
     <!-- Experimental f0 (500 Ω) -->
     <g transform="translate(103.62 102.190938) scale(0.1 -0.1)">
      <use xlink:href="#DejaVuSans-45"/>
      <use xlink:href="#DejaVuSans-78" transform="translate(63.183594 0)"/>
      <use xlink:href="#DejaVuSans-70" transform="translate(122.363281 0)"/>
      <use xlink:href="#DejaVuSans-65" transform="translate(185.839844 0)"/>
      <use xlink:href="#DejaVuSans-72" transform="translate(247.363281 0)"/>
      <use xlink:href="#DejaVuSans-69" transform="translate(288.476562 0)"/>
      <use xlink:href="#DejaVuSans-6d" transform="translate(316.259766 0)"/>
      <use xlink:href="#DejaVuSans-65" transform="translate(413.671875 0)"/>
      <use xlink:href="#DejaVuSans-6e" transform="translate(475.195312 0)"/>
      <use xlink:href="#DejaVuSans-74" transform="translate(538.574219 0)"/>
      <use xlink:href="#DejaVuSans-61" transform="translate(577.783203 0)"/>
      <use xlink:href="#DejaVuSans-6c" transform="translate(639.0625 0)"/>
      <use xlink:href="#DejaVuSans-20" transform="translate(666.845703 0)"/>
      <use xlink:href="#DejaVuSans-66" transform="translate(698.632812 0)"/>
      <use xlink:href="#DejaVuSans-30" transform="translate(733.837891 0)"/>
      <use xlink:href="#DejaVuSans-20" transform="translate(797.460938 0)"/>
      <use xlink:href="#DejaVuSans-28" transform="translate(829.248047 0)"/>
      <use xlink:href="#DejaVuSans-35" transform="translate(868.261719 0)"/>
      <use xlink:href="#DejaVuSans-30" transform="translate(931.884766 0)"/>
      <use xlink:href="#DejaVuSans-30" transform="translate(995.507812 0)"/>
      <use xlink:href="#DejaVuSans-20" transform="translate(1059.130859 0)"/>
      <use xlink:href="#DejaVuSans-3a9" transform="translate(1090.917969 0)"/>
      <use xlink:href="#DejaVuSans-29" transform="translate(1167.333984 0)"/>
     </g>
    </g>
    <g id="line2d_27">
     <path d="M 75.62 113.369062 
L 85.62 113.369062 
L 95.62 113.369062 
" style="fill: none; stroke: #0000ff; stroke-linecap: square"/>
    </g>
    <g id="text_23">
     <!-- R = 200 Ω -->
     <g transform="translate(103.62 116.869062) scale(0.1 -0.1)">
      <use xlink:href="#DejaVuSans-52"/>
      <use xlink:href="#DejaVuSans-20" transform="translate(69.482422 0)"/>
      <use xlink:href="#DejaVuSans-3d" transform="translate(101.269531 0)"/>
      <use xlink:href="#DejaVuSans-20" transform="translate(185.058594 0)"/>
      <use xlink:href="#DejaVuSans-32" transform="translate(216.845703 0)"/>
      <use xlink:href="#DejaVuSans-30" transform="translate(280.46875 0)"/>
      <use xlink:href="#DejaVuSans-30" transform="translate(344.091797 0)"/>
      <use xlink:href="#DejaVuSans-20" transform="translate(407.714844 0)"/>
      <use xlink:href="#DejaVuSans-3a9" transform="translate(439.501953 0)"/>
     </g>
    </g>
    <g id="line2d_28">
     <path d="M 75.62 128.047188 
L 85.62 128.047188 
L 95.62 128.047188 
" style="fill: none; stroke: #ffa500; stroke-linecap: square"/>
    </g>
    <g id="text_24">
     <!-- R = 500 Ω -->
     <g transform="translate(103.62 131.547188) scale(0.1 -0.1)">
      <use xlink:href="#DejaVuSans-52"/>
      <use xlink:href="#DejaVuSans-20" transform="translate(69.482422 0)"/>
      <use xlink:href="#DejaVuSans-3d" transform="translate(101.269531 0)"/>
      <use xlink:href="#DejaVuSans-20" transform="translate(185.058594 0)"/>
      <use xlink:href="#DejaVuSans-35" transform="translate(216.845703 0)"/>
      <use xlink:href="#DejaVuSans-30" transform="translate(280.46875 0)"/>
      <use xlink:href="#DejaVuSans-30" transform="translate(344.091797 0)"/>
      <use xlink:href="#DejaVuSans-20" transform="translate(407.714844 0)"/>
      <use xlink:href="#DejaVuSans-3a9" transform="translate(439.501953 0)"/>
     </g>
    </g>
    <g id="line2d_29">
     <g>
      <use xlink:href="#m18765e37c4" x="85.62" y="142.725312" style="fill: #0000ff; stroke: #0000ff"/>
     </g>
    </g>
    <g id="text_25">
     <!-- R = 200 Ω interceptions -->
     <g transform="translate(103.62 146.225312) scale(0.1 -0.1)">
      <use xlink:href="#DejaVuSans-52"/>
      <use xlink:href="#DejaVuSans-20" transform="translate(69.482422 0)"/>
      <use xlink:href="#DejaVuSans-3d" transform="translate(101.269531 0)"/>
      <use xlink:href="#DejaVuSans-20" transform="translate(185.058594 0)"/>
      <use xlink:href="#DejaVuSans-32" transform="translate(216.845703 0)"/>
      <use xlink:href="#DejaVuSans-30" transform="translate(280.46875 0)"/>
      <use xlink:href="#DejaVuSans-30" transform="translate(344.091797 0)"/>
      <use xlink:href="#DejaVuSans-20" transform="translate(407.714844 0)"/>
      <use xlink:href="#DejaVuSans-3a9" transform="translate(439.501953 0)"/>
      <use xlink:href="#DejaVuSans-20" transform="translate(515.917969 0)"/>
      <use xlink:href="#DejaVuSans-69" transform="translate(547.705078 0)"/>
      <use xlink:href="#DejaVuSans-6e" transform="translate(575.488281 0)"/>
      <use xlink:href="#DejaVuSans-74" transform="translate(638.867188 0)"/>
      <use xlink:href="#DejaVuSans-65" transform="translate(678.076172 0)"/>
      <use xlink:href="#DejaVuSans-72" transform="translate(739.599609 0)"/>
      <use xlink:href="#DejaVuSans-63" transform="translate(778.462891 0)"/>
      <use xlink:href="#DejaVuSans-65" transform="translate(833.443359 0)"/>
      <use xlink:href="#DejaVuSans-70" transform="translate(894.966797 0)"/>
      <use xlink:href="#DejaVuSans-74" transform="translate(958.443359 0)"/>
      <use xlink:href="#DejaVuSans-69" transform="translate(997.652344 0)"/>
      <use xlink:href="#DejaVuSans-6f" transform="translate(1025.435547 0)"/>
      <use xlink:href="#DejaVuSans-6e" transform="translate(1086.617188 0)"/>
      <use xlink:href="#DejaVuSans-73" transform="translate(1149.996094 0)"/>
     </g>
    </g>
    <g id="line2d_30">
     <g>
      <use xlink:href="#m289bf904e0" x="85.62" y="157.403437" style="fill: #ff8c00; stroke: #ff8c00"/>
     </g>
    </g>
    <g id="text_26">
     <!-- R = 500 Ω interceptions -->
     <g transform="translate(103.62 160.903437) scale(0.1 -0.1)">
      <use xlink:href="#DejaVuSans-52"/>
      <use xlink:href="#DejaVuSans-20" transform="translate(69.482422 0)"/>
      <use xlink:href="#DejaVuSans-3d" transform="translate(101.269531 0)"/>
      <use xlink:href="#DejaVuSans-20" transform="translate(185.058594 0)"/>
      <use xlink:href="#DejaVuSans-35" transform="translate(216.845703 0)"/>
      <use xlink:href="#DejaVuSans-30" transform="translate(280.46875 0)"/>
      <use xlink:href="#DejaVuSans-30" transform="translate(344.091797 0)"/>
      <use xlink:href="#DejaVuSans-20" transform="translate(407.714844 0)"/>
      <use xlink:href="#DejaVuSans-3a9" transform="translate(439.501953 0)"/>
      <use xlink:href="#DejaVuSans-20" transform="translate(515.917969 0)"/>
      <use xlink:href="#DejaVuSans-69" transform="translate(547.705078 0)"/>
      <use xlink:href="#DejaVuSans-6e" transform="translate(575.488281 0)"/>
      <use xlink:href="#DejaVuSans-74" transform="translate(638.867188 0)"/>
      <use xlink:href="#DejaVuSans-65" transform="translate(678.076172 0)"/>
      <use xlink:href="#DejaVuSans-72" transform="translate(739.599609 0)"/>
      <use xlink:href="#DejaVuSans-63" transform="translate(778.462891 0)"/>
      <use xlink:href="#DejaVuSans-65" transform="translate(833.443359 0)"/>
      <use xlink:href="#DejaVuSans-70" transform="translate(894.966797 0)"/>
      <use xlink:href="#DejaVuSans-74" transform="translate(958.443359 0)"/>
      <use xlink:href="#DejaVuSans-69" transform="translate(997.652344 0)"/>
      <use xlink:href="#DejaVuSans-6f" transform="translate(1025.435547 0)"/>
      <use xlink:href="#DejaVuSans-6e" transform="translate(1086.617188 0)"/>
      <use xlink:href="#DejaVuSans-73" transform="translate(1149.996094 0)"/>
     </g>
    </g>
    <g id="line2d_31">
     <path d="M 75.62 172.594062 
L 85.62 172.594062 
L 95.62 172.594062 
" style="fill: none; stroke-dasharray: 2.96,1.28; stroke-dashoffset: 0; stroke: #0000ff; stroke-opacity: 0.7; stroke-width: 0.8"/>
    </g>
    <g id="text_27">
     <!-- R = 200 Ω: I_max/√2 -->
     <g transform="translate(103.62 176.094062) scale(0.1 -0.1)">
      <defs>
       <path id="DejaVuSans-3a" d="M 750 794 
L 1409 794 
L 1409 0 
L 750 0 
L 750 794 
z
M 750 3309 
L 1409 3309 
L 1409 2516 
L 750 2516 
L 750 3309 
z
" transform="scale(0.015625)"/>
       <path id="DejaVuSans-49" d="M 628 4666 
L 1259 4666 
L 1259 0 
L 628 0 
L 628 4666 
z
" transform="scale(0.015625)"/>
       <path id="DejaVuSans-5f" d="M 3263 -1063 
L 3263 -1509 
L -63 -1509 
L -63 -1063 
L 3263 -1063 
z
" transform="scale(0.015625)"/>
       <path id="DejaVuSans-2f" d="M 1625 4666 
L 2156 4666 
L 531 -594 
L 0 -594 
L 1625 4666 
z
" transform="scale(0.015625)"/>
       <path id="DejaVuSans-221a" d="M 3488 5191 
L 4078 5191 
L 4078 4891 
L 3719 4891 
L 1863 -128 
L 1656 -128 
L 659 2631 
L 269 2491 
L 191 2741 
L 1075 3047 
L 1875 831 
L 3488 5191 
z
" transform="scale(0.015625)"/>
      </defs>
      <use xlink:href="#DejaVuSans-52"/>
      <use xlink:href="#DejaVuSans-20" transform="translate(69.482422 0)"/>
      <use xlink:href="#DejaVuSans-3d" transform="translate(101.269531 0)"/>
      <use xlink:href="#DejaVuSans-20" transform="translate(185.058594 0)"/>
      <use xlink:href="#DejaVuSans-32" transform="translate(216.845703 0)"/>
      <use xlink:href="#DejaVuSans-30" transform="translate(280.46875 0)"/>
      <use xlink:href="#DejaVuSans-30" transform="translate(344.091797 0)"/>
      <use xlink:href="#DejaVuSans-20" transform="translate(407.714844 0)"/>
      <use xlink:href="#DejaVuSans-3a9" transform="translate(439.501953 0)"/>
      <use xlink:href="#DejaVuSans-3a" transform="translate(515.917969 0)"/>
      <use xlink:href="#DejaVuSans-20" transform="translate(549.609375 0)"/>
      <use xlink:href="#DejaVuSans-49" transform="translate(581.396484 0)"/>
      <use xlink:href="#DejaVuSans-5f" transform="translate(610.888672 0)"/>
      <use xlink:href="#DejaVuSans-6d" transform="translate(660.888672 0)"/>
      <use xlink:href="#DejaVuSans-61" transform="translate(758.300781 0)"/>
      <use xlink:href="#DejaVuSans-78" transform="translate(819.580078 0)"/>
      <use xlink:href="#DejaVuSans-2f" transform="translate(878.759766 0)"/>
      <use xlink:href="#DejaVuSans-221a" transform="translate(912.451172 0)"/>
      <use xlink:href="#DejaVuSans-32" transform="translate(976.171875 0)"/>
     </g>
    </g>
    <g id="line2d_32">
     <path d="M 75.62 188.062812 
L 85.62 188.062812 
L 95.62 188.062812 
" style="fill: none; stroke-dasharray: 2.96,1.28; stroke-dashoffset: 0; stroke: #ffa500; stroke-opacity: 0.7; stroke-width: 0.8"/>
    </g>
    <g id="text_28">
     <!-- R = 500 Ω: I_max/√2 -->
     <g transform="translate(103.62 191.562812) scale(0.1 -0.1)">
      <use xlink:href="#DejaVuSans-52"/>
      <use xlink:href="#DejaVuSans-20" transform="translate(69.482422 0)"/>
      <use xlink:href="#DejaVuSans-3d" transform="translate(101.269531 0)"/>
      <use xlink:href="#DejaVuSans-20" transform="translate(185.058594 0)"/>
      <use xlink:href="#DejaVuSans-35" transform="translate(216.845703 0)"/>
      <use xlink:href="#DejaVuSans-30" transform="translate(280.46875 0)"/>
      <use xlink:href="#DejaVuSans-30" transform="translate(344.091797 0)"/>
      <use xlink:href="#DejaVuSans-20" transform="translate(407.714844 0)"/>
      <use xlink:href="#DejaVuSans-3a9" transform="translate(439.501953 0)"/>
      <use xlink:href="#DejaVuSans-3a" transform="translate(515.917969 0)"/>
      <use xlink:href="#DejaVuSans-20" transform="translate(549.609375 0)"/>
      <use xlink:href="#DejaVuSans-49" transform="translate(581.396484 0)"/>
      <use xlink:href="#DejaVuSans-5f" transform="translate(610.888672 0)"/>
      <use xlink:href="#DejaVuSans-6d" transform="translate(660.888672 0)"/>
      <use xlink:href="#DejaVuSans-61" transform="translate(758.300781 0)"/>
      <use xlink:href="#DejaVuSans-78" transform="translate(819.580078 0)"/>
      <use xlink:href="#DejaVuSans-2f" transform="translate(878.759766 0)"/>
      <use xlink:href="#DejaVuSans-221a" transform="translate(912.451172 0)"/>
      <use xlink:href="#DejaVuSans-32" transform="translate(976.171875 0)"/>
     </g>
    </g>
   </g>
  </g>
 </g>
 <defs>
  <clipPath id="pdaaf66052a">
   <rect x="66.62" y="26.88" width="642.58" height="363.16"/>
  </clipPath>
 </defs>
</svg>
